<svg width="249.99999999999997" height="249.99999999999997" xmlns="http://www.w3.org/2000/svg">
 <defs>
  <style>.cls-1{fill:#5b5b5b;}.cls-2{fill:#7f7f7f;}.cls-3{fill:#ffec5f;}.cls-4{fill:#a98c48;}.cls-5,.cls-7{fill:#68836a;}.cls-6{fill:#aa8d43;}.cls-7{font-size:11px;font-family:ArialMT, Arial;}.cls-8{fill:#a88b49;}.cls-10,.cls-9{fill:#fff;}.cls-9{stroke:#fff;}</style>
 </defs>
 <title>4</title>
 <g>
  <title>background</title>
  <rect fill="none" id="canvas_background" height="402" width="582" y="-1" x="-1"/>
 </g>
 <g>
  <title>Layer 1</title>
  <g id="CWS_-_4">
   <g id="Compass_copy_3">
    <g id="Compass">
     <polygon id="svg_1" points="246.37037035822868,210.42149353027344 240.35036608576775,217.3214874267578 233.28037402033806,221.09149169921875 238.27036425471306,214.81149291992188 246.37037035822868,210.42149353027344 " class="cls-1"/>
     <path id="svg_2" d="m251.37037,206.111481a15.51,15.51 0 1 1 -21.83,-2.06a15.52,15.52 0 0 1 21.83,2.06zm-22.87,18.94a14.19,14.19 0 1 0 1.88,-20a14.2,14.2 0 0 0 -1.92,20l0.04,0z" class="cls-2"/>
     <circle id="svg_3" transform="rotate(-84.62000274658203 19.460371017456037,423.3114318847656) " r="2.97" cy="622.831468" cx="246.480371" class="cls-1"/>
     <path id="svg_4" d="m231.06037,224.851481l-1.9,-2.42l0.37,-0.29l2.42,0.8l0,0l-1.31,-1.67l0.41,-0.32l1.9,2.42l-0.37,0.29l-2.42,-0.81l0,0l1.31,1.63l-0.41,0.37z" class="cls-1"/>
     <circle id="svg_5" transform="rotate(-84.62000274658203 19.460371017456037,423.3114318847656) " r="1.65" cy="622.831468" cx="246.480371" class="cls-3"/>
    </g>
   </g>
   <path id="svg_6" d="m34.52037,123.921481l43.57,-55.73s16.77,-20.16 59.45,-20.16c41,0 60.87,21.62 60.87,21.62l40.59,53.74l-10.15,10.72l-39.66,49.31l-5.08,13.19l-23.48,32.28s-10.84,11.69 -22.47,12s-21.3,-11.78 -21.3,-11.78l-32,-43.81l-37.66,-50.15l-12.68,-11.23z" class="cls-4"/>
   <path id="svg_7" d="m228.37037,124.481481a13.18,13.18 0 0 0 -3.05,-9.9l-33.57,-41.58s-13.23,-18.37 -53.79,-18.37c-38.59,0 -56.59,20.53 -56.59,20.53l-32.9,41.41s-2.18,3.62 0.8,8.82l5.62,8.48l54,75.13l12,15.15s6.88,11.9 17.07,11.9s18.56,-10.33 18.56,-10.33l17.54,-26.49l9.13,-19.89l45.18,-54.86z" class="cls-5"/>
   <path d="m177.50037,185.191481c-0.16,0.2 -8,-29.06 -39.09,-29.06c-33.38,0 -39,27.46 -39.52,30.11l-0.4,0.4l14.76,14.76l0.66,-0.66l18.17,17.92a6.38,6.38 0 0 0 -0.13,6.95l0,0.05a6.38,6.38 0 1 0 10.46,-7.3l18.71,-17.71l0.52,0.52l15.5,-15.5l-0.09,-0.09l0.45,-0.39zm-36.43,31.83a6.38,6.38 0 0 0 -7.59,0.16l-17.64,-18.2s4.1,-3.88 0.57,-8.43l19.51,-19.52a3.4,3.4 0 0 1 4.11,0.69a0.16,0.16 0 0 0 0.08,0.05l18.77,19.53c-0.51,1 -2.47,5.51 0.5,8.13l-18.31,17.59z" class="cls-6" id="infield_sand-2"/>
   <text id="svg_8" x="21.470371" y="110.731481" class="cls-7">330</text>
   <text id="svg_9" x="56.980371" y="69.021482" class="cls-7">377</text>
   <text id="svg_10" x="129.310373" y="44.521482" class="cls-7">400</text>
   <text id="svg_11" x="203.310373" y="71.001482" class="cls-7">372</text>
   <text id="svg_12" x="231.000375" y="109.731481" class="cls-7">335</text>
  </g>
  <g id="Pitchers_mound">
   <circle id="svg_13" transform="rotate(-45 -76.42963409423831,157.021484375) " r="3.83" cy="334.481474" cx="48.820367" class="cls-8"/>
  </g>
  <g id="Bases_and_chalk_lines-ALL">
   <rect id="svg_14" height="1.55" width="3.98" y="193.161481" x="135.54037" class="cls-9"/>
   <rect id="svg_15" transform="rotate(-44.9900016784668 -82.84963226318362,138.67149353027344) " height="3.04" width="3.04" y="313.221484" x="15.560369" class="cls-9"/>
   <rect id="svg_16" transform="rotate(-44.9900016784668 -68.07962799072263,174.3514862060547) " height="3.04" width="3.04" y="348.901476" x="80.810373" class="cls-9"/>
   <rect id="svg_17" transform="rotate(-45.0099983215332 -57.62963104248049,149.21148681640622) " height="3.04" width="3.04" y="298.531477" x="66.02037" class="cls-9"/>
   <polygon id="svg_18" points="139.07036730647087,218.3614959716797 137.53037402033806,219.89149475097656 136.02036425471306,218.3614959716797 136.02036425471306,216.84149169921875 139.07036730647087,216.84149169921875 139.07036730647087,218.3614959716797 " class="cls-9"/>
   <polygon id="svg_19" points="137.55036303400993,221.01148986816406 137.02036425471306,220.4814910888672 37.140370815992355,120.56147766113281 38.07037112116814,119.37147521972656 137.55036303400993,218.89149475097656 236.50037524104118,120.09147644042969 237.4103636443615,121.30147552490234 137.55036303400993,221.01148986816406 " class="cls-10"/>
  </g>
  <rect id="svg_20" height="16.296296" width="24.444444" y="96.273148" x="15.925926" stroke-width="0" stroke="#000" fill="#fff"/>
  <rect id="svg_21" height="13.333333" width="20.37037" y="57.013889" x="54.814815" stroke-width="0" stroke="#000" fill="#fff"/>
  <rect id="svg_22" height="9.62963" width="21.111111" y="36.643519" x="128.888889" stroke-width="0" stroke="#000" fill="#fff"/>
  <rect id="svg_23" height="10.37037" width="19.62963" y="61.458333" x="204.444444" stroke-width="0" stroke="#000" fill="#fff"/>
  <rect id="svg_24" height="8.888889" width="18.148148" y="101.087963" x="232.222222" stroke-width="0" stroke="#000" fill="#fff"/>
  <rect id="svg_25" height="9.62963" width="6.666667" y="61.458333" x="202.592593" stroke-width="0" stroke="#000" fill="#fff"/>
  <rect id="svg_26" height="8.518519" width="7.777778" y="100.717593" x="230.740741" stroke-width="0" stroke="#000" fill="#fff"/>
  <rect id="svg_27" height="6.666667" width="6.296296" y="31.087963" x="219.62963" stroke-width="0" stroke="#000" fill="#fff"/>
  <rect id="svg_28" height="44.444444" width="52.962963" y="196.273148" x="216.666667" stroke-width="0" stroke="#000" fill="#fff"/>
  <rect id="svg_29" height="12.222222" width="28.888889" y="30.347222" x="125.555556" stroke-width="0" stroke="#000" fill="#fff"/>
  <rect id="svg_30" height="3.703704" width="3.703704" y="22.569444" x="42.592593" stroke-width="0" stroke="#000" fill="#fff"/>
 </g>
</svg>